<svg width="1200" height="900" viewBox="0 0 1200 900" fill="none" xmlns="http://www.w3.org/2000/svg">
  <defs>
    <linearGradient id="bg" x1="0" y1="0" x2="0" y2="1">
      <stop offset="0" stop-color="#1E1F22"/>
      <stop offset="1" stop-color="#121316"/>
    </linearGradient>
    <linearGradient id="card" x1="0" y1="0" x2="1" y2="1">
      <stop offset="0" stop-color="#F6F0DA"/>
      <stop offset="1" stop-color="#D9CBA3"/>
    </linearGradient>
    <filter id="shadow" x="120" y="120" width="960" height="700" filterUnits="userSpaceOnUse" color-interpolation-filters="sRGB">
      <feFlood flood-opacity="0" result="BackgroundImageFix"/>
      <feColorMatrix in="SourceAlpha" type="matrix" values="0 0 0 0 0 0 0 0 0 0 0 0 0 0 0 0 0 0 127 0" result="hardAlpha"/>
      <feOffset dy="28"/>
      <feGaussianBlur stdDeviation="24"/>
      <feColorMatrix type="matrix" values="0 0 0 0 0 0 0 0 0 0 0 0 0 0 0 0 0 0 0.45 0"/>
      <feBlend mode="normal" in2="BackgroundImageFix" result="effect1_dropShadow_1_2"/>
      <feBlend mode="normal" in="SourceGraphic" in2="effect1_dropShadow_1_2" result="shape"/>
    </filter>
  </defs>

  <rect width="1200" height="900" fill="url(#bg)"/>

  <g filter="url(#shadow)">
    <rect x="210" y="170" width="780" height="560" rx="36" fill="url(#card)"/>
    <rect x="210" y="170" width="780" height="560" rx="36" stroke="#F9F2DE" stroke-opacity="0.35"/>
  </g>

  <rect x="290" y="250" width="200" height="16" rx="8" fill="#5F5440" fill-opacity="0.45"/>
  <rect x="290" y="292" width="620" height="22" rx="11" fill="#4A3F2F" fill-opacity="0.65"/>
  <rect x="290" y="330" width="520" height="22" rx="11" fill="#4A3F2F" fill-opacity="0.65"/>
  <rect x="290" y="390" width="380" height="14" rx="7" fill="#5F5440" fill-opacity="0.42"/>
  <rect x="290" y="420" width="500" height="14" rx="7" fill="#5F5440" fill-opacity="0.36"/>

  <rect x="290" y="500" width="280" height="74" rx="16" fill="#1D1D1D"/>
  <rect x="290" y="500" width="280" height="74" rx="16" stroke="#000" stroke-opacity="0.2"/>
  <rect x="350" y="530" width="160" height="14" rx="7" fill="#F2F2F2" fill-opacity="0.9"/>

  <rect x="805" y="498" width="106" height="106" rx="12" fill="#171717"/>
  <path d="M829 539H887V555H829V539ZM829 563H860V579H829V563ZM868 563H887V602H868V563Z" fill="#D4AF37"/>
</svg>
